# xmcd CD database file
#
# Track frame offsets:
#	150
#	16555
#	36885
#	49450
#	64557
#	79132
#	95787
#	107055
#	122127
#	136887
#	153062
#	167152
#
# Disc length: 2452 seconds
#
# Revision: 0
# Processed by: cddbd v1.5.2PL0 Copyright (c) Steve Scherf et al.
# Submitted via: CDex 1.70beta2
#
DISCID=9509920c
DTITLE=Jerry Piper - My Kind Of Kountry
DYEAR=1996
DGENRE=Country
TTITLE0=Hirty Flirty Love
TTITLE1=After The Ran
TTITLE2=Without You
TTITLE3=The Distance
TTITLE4=Somewhere Downtown
TTITLE5=This Time
TTITLE6=Sick Of Payin' Taxes
TTITLE7=When Love Builds A House
TTITLE8=Keep Knockin'
TTITLE9=Rose Upon A Stem
TTITLE10=Somewhere Above Tennessee
TTITLE11=Doctor Doctor
EXTD=YEAR: 1996
EXTT0=
EXTT1=
EXTT2=
EXTT3=
EXTT4=
EXTT5=
EXTT6=
EXTT7=
EXTT8=
EXTT9=
EXTT10=
EXTT11=
PLAYORDER=
